IGES file generated from Kompas f.0 for Windows drawing by the IGES     S      1
translator from Ascon Ltd., translator version IGESOUT-5.1.             S      2
1H,,1H;,10HVERSIONf.0,74HC:\Users\glovbow\Desktop\Projects\Smartwatch\BoG      1
dy\watch case\IGES\coil.igs,28HKompas( 32 bit ) for Windows,3H1.0,32,38,G      2
6,308,15,7Hunknown,1,2,2HMM,1000,1,16H-17840429:121615,1e-006,50000,5HIlG      3
yas,7Hunknown,0,0,13H160529:121615;                                     G      4
     502       1       0       0       0       0       0       000010000D      1
     502       0       0       3       1                               0D      2
     124       4       0       0       0       0       0       001020201D      3
     124       0       0       2       0                               0D      4
     100       6       0       0       0       0       3       000010000D      5
     100       1       0       1       0                               0D      6
     124       7       0       0       0       0       0       001020201D      7
     124       1       0       1       0                               0D      8
     100       8       0       0       0       0       7       000010000D      9
     100       1       0       1       0                               0D     10
     124       9       0       0       0       0       0       001020201D     11
     124       1       0       1       0                               0D     12
     100      10       0       0       0       0      11       000010000D     13
     100       1       0       1       0                               0D     14
     124      11       0       0       0       0       0       001020201D     15
     124       1       0       2       0                               0D     16
     100      13       0       0       0       0      15       000010000D     17
     100       1       0       1       0                               0D     18
     124      14       0       0       0       0       0       001020201D     19
     124       1       0       1       0                               0D     20
     100      15       0       0       0       0      19       000010000D     21
     100       1       0       1       0                               0D     22
     124      16       0       0       0       0       0       001020201D     23
     124       1       0       2       0                               0D     24
     100      18       0       0       0       0      23       000010000D     25
     100       1       0       1       0                               0D     26
     124      19       0       0       0       0       0       001020201D     27
     124       1       0       2       0                               0D     28
     100      21       0       0       0       0      27       000010000D     29
     100       1       0       1       0                               0D     30
     124      22       0       0       0       0       0       001020201D     31
     124       1       0       1       0                               0D     32
     100      23       0       0       0       0      31       000010000D     33
     100       1       0       1       0                               0D     34
     110      24       0       0       0       0       0       000010000D     35
     110       1       0       1       0                               0D     36
     110      25       0       0       0       0       0       000010000D     37
     110       1       0       1       0                               0D     38
     110      26       0       0       0       0       0       000010000D     39
     110       1       0       1       0                               0D     40
     110      27       0       0       0       0       0       000010000D     41
     110       1       0       1       0                               0D     42
     504      28       0       0       0       0       0       000010000D     43
     504       1       0       3       1                               0D     44
     128      31       0       0       0       0       0       000010000D     45
     128       1       0       2       0                               0D     46
     126      33       0       0       0       0       0       001010500D     47
     126       1       0      27       0                               0D     48
     126      60       0       0       0       0       0       001010500D     49
     126       1       0      27       0                               0D     50
     508      87       0       0       0       0       0       000010000D     51
     508       1       0       1       1                               0D     52
     126      88       0       0       0       0       0       001010500D     53
     126       1       0      28       0                               0D     54
     126     116       0       0       0       0       0       001010500D     55
     126       1       0      28       0                               0D     56
     508     144       0       0       0       0       0       000010000D     57
     508       1       0       1       1                               0D     58
     314     145       0       0       0       0       0       001000200D     59
     314       1       0       1       0                               0D     60
     510     146       0       0       0       0       0       000010000D     61
     510       1     -59       1       1                               0D     62
     128     147       0       0       0       0       0       000010000D     63
     128       1       0       2       0                               0D     64
     126     149       0       0       0       0       0       001010500D     65
     126       1       0      27       0                               0D     66
     126     176       0       0       0       0       0       001010500D     67
     126       1       0      27       0                               0D     68
     508     203       0       0       0       0       0       000010000D     69
     508       1       0       1       1                               0D     70
     126     204       0       0       0       0       0       001010500D     71
     126       1       0      28       0                               0D     72
     126     232       0       0       0       0       0       001010500D     73
     126       1       0      28       0                               0D     74
     508     260       0       0       0       0       0       000010000D     75
     508       1       0       1       1                               0D     76
     510     261       0       0       0       0       0       000010000D     77
     510       1     -59       1       1                               0D     78
     110     262       0       0       0       0       0       001010000D     79
     110       1       0       1       0                               0D     80
     110     263       0       0       0       0       0       001010001D     81
     110       1       0       1       0                               0D     82
     120     264       0       0       0       0       0       000010000D     83
     120       1       0       1       0                               0D     84
     126     265       0       0       0       0       0       001010500D     85
     126       1       0       2       0                               0D     86
     126     267       0       0       0       0       0       001010500D     87
     126       1       0       2       0                               0D     88
     126     269       0       0       0       0       0       001010500D     89
     126       1       0       2       0                               0D     90
     126     271       0       0       0       0       0       001010500D     91
     126       1       0       1       0                               0D     92
     508     272       0       0       0       0       0       000010000D     93
     508       1       0       2       1                               0D     94
     314     274       0       0       0       0       0       001000200D     95
     314       1       0       1       0                               0D     96
     510     275       0       0       0       0       0       000010000D     97
     510       1     -95       1       1                               0D     98
     110     276       0       0       0       0       0       001010000D     99
     110       1       0       1       0                               0D    100
     110     277       0       0       0       0       0       001010001D    101
     110       1       0       1       0                               0D    102
     120     278       0       0       0       0       0       000010000D    103
     120       1       0       1       0                               0D    104
     126     279       0       0       0       0       0       001010500D    105
     126       1       0       2       0                               0D    106
     126     281       0       0       0       0       0       001010500D    107
     126       1       0       1       0                               0D    108
     126     282       0       0       0       0       0       001010500D    109
     126       1       0       2       0                               0D    110
     126     284       0       0       0       0       0       001010500D    111
     126       1       0       2       0                               0D    112
     508     286       0       0       0       0       0       000010000D    113
     508       1       0       2       1                               0D    114
     510     288       0       0       0       0       0       000010000D    115
     510       1     -59       1       1                               0D    116
     110     289       0       0       0       0       0       001010000D    117
     110       1       0       1       0                               0D    118
     110     290       0       0       0       0       0       001010001D    119
     110       1       0       1       0                               0D    120
     120     291       0       0       0       0       0       000010000D    121
     120       1       0       1       0                               0D    122
     126     292       0       0       0       0       0       001010500D    123
     126       1       0       2       0                               0D    124
     126     294       0       0       0       0       0       001010500D    125
     126       1       0       2       0                               0D    126
     126     296       0       0       0       0       0       001010500D    127
     126       1       0       1       0                               0D    128
     126     297       0       0       0       0       0       001010500D    129
     126       1       0       2       0                               0D    130
     508     299       0       0       0       0       0       000010000D    131
     508       1       0       2       1                               0D    132
     510     301       0       0       0       0       0       000010000D    133
     510       1     -95       1       1                               0D    134
     110     302       0       0       0       0       0       001010000D    135
     110       1       0       1       0                               0D    136
     110     303       0       0       0       0       0       001010001D    137
     110       1       0       1       0                               0D    138
     120     304       0       0       0       0       0       000010000D    139
     120       1       0       1       0                               0D    140
     126     305       0       0       0       0       0       001010500D    141
     126       1       0       1       0                               0D    142
     126     306       0       0       0       0       0       001010500D    143
     126       1       0       2       0                               0D    144
     126     308       0       0       0       0       0       001010500D    145
     126       1       0       2       0                               0D    146
     126     310       0       0       0       0       0       001010500D    147
     126       1       0       2       0                               0D    148
     508     312       0       0       0       0       0       000010000D    149
     508       1       0       2       1                               0D    150
     510     314       0       0       0       0       0       000010000D    151
     510       1     -59       1       1                               0D    152
     514     315       0       0       0       0       0       000010000D    153
     514       1       0       1       1                               0D    154
     186     316       0       0       0       0       0       000000000D    155
     186       1       0       1       0                               0D    156
     124     317       0       0       0       0       0       000000000D    157
     124       1       0       1       0                               0D    158
     100     318       0       1       0       0     157       000000000D    159
     100       1       4       1       0                               0D    160
     124     319       0       1       0       0       0       000000000D    161
     124       1       0       1       0                               0D    162
     100     320       0       1       0       0     161       000000000D    163
     100       1       4       1       0                               0D    164
502,8,-11.5,1.40834381901946e-015,0,11.5,0,0,5,0,0,-5,                 1P      1
6.12323399573677e-016,0,11.5,0,2,-11.5,1.40834381901946e-015,2,        1P      2
5,0,2,-5,6.12323399573677e-016,2;                                      1P      3
124,-1,-1.22464679914735e-016,0,0,1.22464679914735e-016,-1,0,0,        3P      4
0,0,1,0;                                                               3P      5
100,0,0,0,11.5,0,-11.5,1.40834381901946e-015;                          5P      6
124,1,0,0,0,0,1,0,0,0,0,1,0;                                           7P      7
100,0,0,0,11.5,0,-11.5,1.40834381901946e-015;                          9P      8
124,1,0,0,0,0,1,0,0,0,0,1,0;                                          11P      9
100,0,0,0,5,0,-5,6.12323399573677e-016;                               13P     10
124,-1,-1.22464679914735e-016,0,0,1.22464679914735e-016,-1,0,0,       15P     11
0,0,1,0;                                                              15P     12
100,0,0,0,5,0,-5,6.12323399573677e-016;                               17P     13
124,1,0,0,0,0,1,0,0,0,0,1,2;                                          19P     14
100,0,0,0,11.5,0,-11.5,1.40834381901946e-015;                         21P     15
124,-1,-1.22464679914735e-016,0,0,1.22464679914735e-016,-1,0,0,       23P     16
0,0,1,2;                                                              23P     17
100,0,0,0,11.5,0,-11.5,1.40834381901946e-015;                         25P     18
124,-1,-1.22464679914735e-016,0,0,1.22464679914735e-016,-1,0,0,       27P     19
0,0,1,2;                                                              27P     20
100,0,0,0,5,0,-5,6.12323399573677e-016;                               29P     21
124,1,0,0,0,0,1,0,0,0,0,1,2;                                          31P     22
100,0,0,0,5,0,-5,6.12323399573677e-016;                               33P     23
110,-5,6.12323399573677e-016,0,-5,6.12323399573677e-016,2;            35P     24
110,5,0,0,5,0,2;                                                      37P     25
110,-11.5,1.40834381901946e-015,0,-11.5,1.40834381901946e-015,2;      39P     26
110,11.5,-2.81668763803891e-015,0,11.5,-2.81668763803891e-015,2;      41P     27
504,12,5,1,1,1,2,9,1,2,1,1,13,1,3,1,4,17,1,4,1,3,21,1,5,1,6,25,       43P     28
1,6,1,5,29,1,8,1,7,33,1,7,1,8,35,1,4,1,8,37,1,3,1,7,39,1,1,1,6,       43P     29
41,1,2,1,5;                                                           43P     30
128,1,1,1,1,0,0,1,0,0,0,0,1,1,0,0,1,1,1,1,1,1,-11.5,-11.5,0,          45P     31
11.5,-11.5,0,-11.5,11.5,0,11.5,11.5,0,0,1,0,1;                        45P     32
126,28,3,1,0,1,0,0,0,0,0,0.0384615384615385,0.0769230769230769,       47P     33
0.115384615384615,0.153846153846154,0.192307692307692,                47P     34
0.230769230769231,0.269230769230769,0.307692307692308,                47P     35
0.346153846153846,0.384615384615385,0.423076923076923,                47P     36
0.461538461538461,0.5,0.538461538461538,0.576923076923077,            47P     37
0.615384615384615,0.653846153846154,0.692307692307692,                47P     38
0.73076923076923,0.769230769230769,0.807692307692307,                 47P     39
0.846153846153846,0.884615384615384,0.923076923076923,                47P     40
0.961538461538461,1,1,1,1,1,1,1,1,1,1,1,1,1,1,1,1,1,1,1,1,1,1,1,      47P     41
1,1,1,1,1,1,1,1,1,1,0,0.5,0,0,0.479861585553912,0,                    47P     42
0.00243629641528159,0.439584839418656,0,0.0133463402523528,           47P     43
0.380050642937869,0,0.0313528902971504,0.322265595967195,0,           47P     44
0.056193370502801,0.267072312065745,0,0.0875055507320162,             47P     45
0.21527563963852,0,0.124832828888165,0.167630889186707,0,             47P     46
0.16763088920202,0.124832828892269,0,0.215275639581368,               47P     47
0.0875055507309168,0,0.267072312279042,0.0561933705030954,0,          47P     48
0.322265595171161,0.0313528902970715,0,0.380050645908708,             47P     49
0.0133463402523745,0,0.43958482833133,0.00243629641527532,0,0.5,      47P     50
-0.00121814820763766,0,0.560415171668669,0.00243629641527532,0,       47P     51
0.61994935409129,0.0133463402523741,0,0.677734404828839,              47P     52
0.0313528902970712,0,0.732927687720958,0.0561933705030954,0,          47P     53
0.784724360418632,0.0875055507309164,0,0.832369110797979,             47P     54
0.124832828892268,0,0.875167171111835,0.167630889186706,0,            47P     55
0.912494449267983,0.21527563963852,0,0.943806629497199,               47P     56
0.267072312065744,0,0.968647109702849,0.322265595967194,0,            47P     57
0.986653659747647,0.380050642937868,0,0.997563703584719,              47P     58
0.439584839418655,0,1,0.479861585553911,0,1,0.5,0,0,1,0,0,1;          47P     59
126,28,3,1,0,1,0,0,0,0,0,0.0384615384615385,0.0769230769230769,       49P     60
0.115384615384615,0.153846153846154,0.192307692307692,                49P     61
0.230769230769231,0.269230769230769,0.307692307692308,                49P     62
0.346153846153846,0.384615384615385,0.423076923076923,                49P     63
0.461538461538461,0.5,0.538461538461538,0.576923076923077,            49P     64
0.615384615384615,0.653846153846154,0.692307692307692,                49P     65
0.73076923076923,0.769230769230769,0.807692307692307,                 49P     66
0.846153846153846,0.884615384615384,0.923076923076923,                49P     67
0.961538461538461,1,1,1,1,1,1,1,1,1,1,1,1,1,1,1,1,1,1,1,1,1,1,1,      49P     68
1,1,1,1,1,1,1,1,1,1,1,0.5,0,1,0.520138414446088,0,                    49P     69
0.997563703584718,0.560415160581344,0,0.986653659747647,              49P     70
0.619949357062131,0,0.96864710970285,0.677734404032805,0,             49P     71
0.943806629497199,0.732927687934255,0,0.912494449267984,              49P     72
0.78472436036148,0,0.875167171111835,0.832369110813293,0,             49P     73
0.83236911079798,0.875167171107732,0,0.784724360418632,               49P     74
0.912494449269083,0,0.732927687720959,0.943806629496904,0,            49P     75
0.677734404828839,0.968647109702928,0,0.619949354091291,              49P     76
0.986653659747626,0,0.56041517166867,0.997563703584724,0,0.5,         49P     77
1.00121814820764,0,0.439584828331331,0.997563703584725,0,             49P     78
0.380050645908709,0.986653659747626,0,0.322265595171161,              49P     79
0.968647109702929,0,0.267072312279042,0.943806629496905,0,            49P     80
0.215275639581368,0.912494449269084,0,0.167630889202021,              49P     81
0.875167171107732,0,0.124832828888165,0.832369110813294,0,            49P     82
0.0875055507320167,0.78472436036148,0,0.0561933705028012,             49P     83
0.732927687934256,0,0.0313528902971507,0.677734404032806,0,           49P     84
0.0133463402523532,0.619949357062132,0,0.00243629641528148,           49P     85
0.560415160581345,0,0,0.520138414446089,0,0,0.5,0,0,1,0,0,1;          49P     86
508,2,0,43,1,0,1,0,47,0,43,2,0,1,0,49;                                51P     87
126,28,3,1,0,1,0,0,0,0,0,0.0384615384615385,0.0769230769230769,       53P     88
0.115384615384615,0.153846153846154,0.192307692307692,                53P     89
0.230769230769231,0.269230769230769,0.307692307692308,                53P     90
0.346153846153846,0.384615384615385,0.423076923076923,                53P     91
0.461538461538461,0.5,0.538461538461538,0.576923076923077,            53P     92
0.615384615384615,0.653846153846154,0.692307692307692,                53P     93
0.73076923076923,0.769230769230769,0.807692307692307,                 53P     94
0.846153846153846,0.884615384615384,0.923076923076923,                53P     95
0.961538461538461,1,1,1,1,1,1,1,1,1,1,1,1,1,1,1,1,1,1,1,1,1,1,1,      53P     96
1,1,1,1,1,1,1,1,1,1,0.717391304347826,0.5,0,0.717391304347826,        53P     97
0.508755832367864,0,0.716332045036834,0.526267461122324,0,            53P     98
0.711588547716368,0.552151894374839,0,0.703759612914282,              53P     99
0.57727582784035,0,0.692959404129217,0.601272907797502,0,             53P    100
0.67934541272521,0.623793200157165,0,0.663116161352972,               53P    101
0.644508309049258,0,0.6445083090426,0.663116161351188,0,              53P    102
0.623793200182014,0.679345412725688,0,0.601272907704765,              53P    103
0.692959404129089,0,0.577275828186452,0.703759612914317,0,            53P    104
0.55215189308317,0.711588547716359,0,0.5262674659429,                 53P    105
0.716332045036837,0,0.5,0.717920934003321,0,0.4737325340571,          53P    106
0.716332045036837,0,0.44784810691683,0.711588547716359,0,             53P    107
0.422724171813548,0.703759612914317,0,0.398727092295236,              53P    108
0.692959404129089,0,0.376206799817986,0.679345412725688,0,            53P    109
0.3554916909574,0.663116161351188,0,0.336883838647028,                53P    110
0.644508309049258,0,0.32065458727479,0.623793200157165,0,             53P    111
0.307040595870783,0.601272907797503,0,0.296240387085718,              53P    112
0.57727582784035,0,0.288411452283632,0.55215189437484,0,              53P    113
0.283667954963166,0.526267461122324,0,0.282608695652174,              53P    114
0.508755832367865,0,0.282608695652174,0.5,0,0,1,0,0,1;                53P    115
126,28,3,1,0,1,0,0,0,0,0,0.0384615384615385,0.0769230769230769,       55P    116
0.115384615384615,0.153846153846154,0.192307692307692,                55P    117
0.230769230769231,0.269230769230769,0.307692307692308,                55P    118
0.346153846153846,0.384615384615385,0.423076923076923,                55P    119
0.461538461538461,0.5,0.538461538461538,0.576923076923077,            55P    120
0.615384615384615,0.653846153846154,0.692307692307692,                55P    121
0.73076923076923,0.769230769230769,0.807692307692307,                 55P    122
0.846153846153846,0.884615384615384,0.923076923076923,                55P    123
0.961538461538461,1,1,1,1,1,1,1,1,1,1,1,1,1,1,1,1,1,1,1,1,1,1,1,      55P    124
1,1,1,1,1,1,1,1,1,1,0.282608695652174,0.5,0,0.282608695652174,        55P    125
0.491244167632136,0,0.283667954963166,0.473732538877676,0,            55P    126
0.288411452283632,0.447848105625161,0,0.296240387085718,              55P    127
0.42272417215965,0,0.307040595870783,0.398727092202498,0,             55P    128
0.32065458727479,0.376206799842835,0,0.336883838647028,               55P    129
0.355491690950742,0,0.3554916909574,0.336883838648812,0,              55P    130
0.376206799817986,0.320654587274312,0,0.398727092295236,              55P    131
0.307040595870911,0,0.422724171813548,0.296240387085683,0,            55P    132
0.44784810691683,0.288411452283641,0,0.4737325340571,                 55P    133
0.283667954963163,0,0.5,0.282079065996679,0,0.5262674659429,          55P    134
0.283667954963163,0,0.55215189308317,0.288411452283641,0,             55P    135
0.577275828186452,0.296240387085683,0,0.601272907704764,              55P    136
0.307040595870911,0,0.623793200182014,0.320654587274312,0,            55P    137
0.644508309042599,0.336883838648812,0,0.663116161352972,              55P    138
0.355491690950742,0,0.67934541272521,0.376206799842835,0,             55P    139
0.692959404129217,0.398727092202497,0,0.703759612914282,              55P    140
0.422724172159649,0,0.711588547716368,0.44784810562516,0,             55P    141
0.716332045036834,0.473732538877676,0,0.717391304347826,              55P    142
0.491244167632135,0,0.717391304347826,0.5,0,0,1,0,0,1;                55P    143
508,2,0,43,3,1,1,0,53,0,43,4,1,1,0,55;                                57P    144
314,100,67.843137254902,35.6862745098039,1H ;                         59P    145
510,45,2,1,51,57;                                                     61P    146
128,1,1,1,1,0,0,1,0,0,0,0,1,1,0,0,1,1,1,1,1,1,-11.5,-11.5,2,          63P    147
11.5,-11.5,2,-11.5,11.5,2,11.5,11.5,2,0,1,0,1;                        63P    148
126,28,3,1,0,1,0,0,0,0,0,0.0384615384615385,0.0769230769230769,       65P    149
0.115384615384615,0.153846153846154,0.192307692307692,                65P    150
0.230769230769231,0.269230769230769,0.307692307692308,                65P    151
0.346153846153846,0.384615384615385,0.423076923076923,                65P    152
0.461538461538461,0.5,0.538461538461538,0.576923076923077,            65P    153
0.615384615384615,0.653846153846154,0.692307692307692,                65P    154
0.73076923076923,0.769230769230769,0.807692307692307,                 65P    155
0.846153846153846,0.884615384615384,0.923076923076923,                65P    156
0.961538461538461,1,1,1,1,1,1,1,1,1,1,1,1,1,1,1,1,1,1,1,1,1,1,1,      65P    157
1,1,1,1,1,1,1,1,1,1,1,0.5,0,1,0.520138414446088,0,                    65P    158
0.997563703584718,0.560415160581344,0,0.986653659747647,              65P    159
0.619949357062131,0,0.96864710970285,0.677734404032805,0,             65P    160
0.943806629497199,0.732927687934255,0,0.912494449267984,              65P    161
0.78472436036148,0,0.875167171111835,0.832369110813293,0,             65P    162
0.83236911079798,0.875167171107732,0,0.784724360418632,               65P    163
0.912494449269083,0,0.732927687720959,0.943806629496904,0,            65P    164
0.677734404828839,0.968647109702928,0,0.619949354091291,              65P    165
0.986653659747626,0,0.56041517166867,0.997563703584724,0,0.5,         65P    166
1.00121814820764,0,0.439584828331331,0.997563703584725,0,             65P    167
0.380050645908709,0.986653659747626,0,0.322265595171161,              65P    168
0.968647109702929,0,0.267072312279042,0.943806629496905,0,            65P    169
0.215275639581368,0.912494449269084,0,0.167630889202021,              65P    170
0.875167171107732,0,0.124832828888165,0.832369110813294,0,            65P    171
0.0875055507320167,0.78472436036148,0,0.0561933705028012,             65P    172
0.732927687934256,0,0.0313528902971507,0.677734404032806,0,           65P    173
0.0133463402523532,0.619949357062132,0,0.00243629641528148,           65P    174
0.560415160581345,0,0,0.520138414446089,0,0,0.5,0,0,1,0,0,1;          65P    175
126,28,3,1,0,1,0,0,0,0,0,0.0384615384615385,0.0769230769230769,       67P    176
0.115384615384615,0.153846153846154,0.192307692307692,                67P    177
0.230769230769231,0.269230769230769,0.307692307692308,                67P    178
0.346153846153846,0.384615384615385,0.423076923076923,                67P    179
0.461538461538461,0.5,0.538461538461538,0.576923076923077,            67P    180
0.615384615384615,0.653846153846154,0.692307692307692,                67P    181
0.73076923076923,0.769230769230769,0.807692307692307,                 67P    182
0.846153846153846,0.884615384615384,0.923076923076923,                67P    183
0.961538461538461,1,1,1,1,1,1,1,1,1,1,1,1,1,1,1,1,1,1,1,1,1,1,1,      67P    184
1,1,1,1,1,1,1,1,1,1,0,0.5,0,0,0.479861585553912,0,                    67P    185
0.00243629641528159,0.439584839418656,0,0.0133463402523528,           67P    186
0.380050642937869,0,0.0313528902971504,0.322265595967195,0,           67P    187
0.056193370502801,0.267072312065745,0,0.0875055507320162,             67P    188
0.21527563963852,0,0.124832828888165,0.167630889186707,0,             67P    189
0.16763088920202,0.124832828892269,0,0.215275639581368,               67P    190
0.0875055507309168,0,0.267072312279042,0.0561933705030954,0,          67P    191
0.322265595171161,0.0313528902970715,0,0.380050645908708,             67P    192
0.0133463402523745,0,0.43958482833133,0.00243629641527532,0,0.5,      67P    193
-0.00121814820763766,0,0.560415171668669,0.00243629641527532,0,       67P    194
0.61994935409129,0.0133463402523741,0,0.677734404828839,              67P    195
0.0313528902970712,0,0.732927687720958,0.0561933705030954,0,          67P    196
0.784724360418632,0.0875055507309164,0,0.832369110797979,             67P    197
0.124832828892268,0,0.875167171111835,0.167630889186706,0,            67P    198
0.912494449267983,0.21527563963852,0,0.943806629497199,               67P    199
0.267072312065744,0,0.968647109702849,0.322265595967194,0,            67P    200
0.986653659747647,0.380050642937868,0,0.997563703584719,              67P    201
0.439584839418655,0,1,0.479861585553911,0,1,0.5,0,0,1,0,0,1;          67P    202
508,2,0,43,5,1,1,0,65,0,43,6,1,1,0,67;                                69P    203
126,28,3,1,0,1,0,0,0,0,0,0.0384615384615385,0.0769230769230769,       71P    204
0.115384615384615,0.153846153846154,0.192307692307692,                71P    205
0.230769230769231,0.269230769230769,0.307692307692308,                71P    206
0.346153846153846,0.384615384615385,0.423076923076923,                71P    207
0.461538461538461,0.5,0.538461538461538,0.576923076923077,            71P    208
0.615384615384615,0.653846153846154,0.692307692307692,                71P    209
0.73076923076923,0.769230769230769,0.807692307692307,                 71P    210
0.846153846153846,0.884615384615384,0.923076923076923,                71P    211
0.961538461538461,1,1,1,1,1,1,1,1,1,1,1,1,1,1,1,1,1,1,1,1,1,1,1,      71P    212
1,1,1,1,1,1,1,1,1,1,0.282608695652174,0.5,0,0.282608695652174,        71P    213
0.491244167632136,0,0.283667954963166,0.473732538877676,0,            71P    214
0.288411452283632,0.447848105625161,0,0.296240387085718,              71P    215
0.42272417215965,0,0.307040595870783,0.398727092202498,0,             71P    216
0.32065458727479,0.376206799842835,0,0.336883838647028,               71P    217
0.355491690950742,0,0.3554916909574,0.336883838648812,0,              71P    218
0.376206799817986,0.320654587274312,0,0.398727092295236,              71P    219
0.307040595870911,0,0.422724171813548,0.296240387085683,0,            71P    220
0.44784810691683,0.288411452283641,0,0.4737325340571,                 71P    221
0.283667954963163,0,0.5,0.282079065996679,0,0.5262674659429,          71P    222
0.283667954963163,0,0.55215189308317,0.288411452283641,0,             71P    223
0.577275828186452,0.296240387085683,0,0.601272907704764,              71P    224
0.307040595870911,0,0.623793200182014,0.320654587274312,0,            71P    225
0.644508309042599,0.336883838648812,0,0.663116161352972,              71P    226
0.355491690950742,0,0.67934541272521,0.376206799842835,0,             71P    227
0.692959404129217,0.398727092202497,0,0.703759612914282,              71P    228
0.422724172159649,0,0.711588547716368,0.44784810562516,0,             71P    229
0.716332045036834,0.473732538877676,0,0.717391304347826,              71P    230
0.491244167632135,0,0.717391304347826,0.5,0,0,1,0,0,1;                71P    231
126,28,3,1,0,1,0,0,0,0,0,0.0384615384615385,0.0769230769230769,       73P    232
0.115384615384615,0.153846153846154,0.192307692307692,                73P    233
0.230769230769231,0.269230769230769,0.307692307692308,                73P    234
0.346153846153846,0.384615384615385,0.423076923076923,                73P    235
0.461538461538461,0.5,0.538461538461538,0.576923076923077,            73P    236
0.615384615384615,0.653846153846154,0.692307692307692,                73P    237
0.73076923076923,0.769230769230769,0.807692307692307,                 73P    238
0.846153846153846,0.884615384615384,0.923076923076923,                73P    239
0.961538461538461,1,1,1,1,1,1,1,1,1,1,1,1,1,1,1,1,1,1,1,1,1,1,1,      73P    240
1,1,1,1,1,1,1,1,1,1,0.717391304347826,0.5,0,0.717391304347826,        73P    241
0.508755832367864,0,0.716332045036834,0.526267461122324,0,            73P    242
0.711588547716368,0.552151894374839,0,0.703759612914282,              73P    243
0.57727582784035,0,0.692959404129217,0.601272907797502,0,             73P    244
0.67934541272521,0.623793200157165,0,0.663116161352972,               73P    245
0.644508309049258,0,0.6445083090426,0.663116161351188,0,              73P    246
0.623793200182014,0.679345412725688,0,0.601272907704765,              73P    247
0.692959404129089,0,0.577275828186452,0.703759612914317,0,            73P    248
0.55215189308317,0.711588547716359,0,0.5262674659429,                 73P    249
0.716332045036837,0,0.5,0.717920934003321,0,0.4737325340571,          73P    250
0.716332045036837,0,0.44784810691683,0.711588547716359,0,             73P    251
0.422724171813548,0.703759612914317,0,0.398727092295236,              73P    252
0.692959404129089,0,0.376206799817986,0.679345412725688,0,            73P    253
0.3554916909574,0.663116161351188,0,0.336883838647028,                73P    254
0.644508309049258,0,0.32065458727479,0.623793200157165,0,             73P    255
0.307040595870783,0.601272907797503,0,0.296240387085718,              73P    256
0.57727582784035,0,0.288411452283632,0.55215189437484,0,              73P    257
0.283667954963166,0.526267461122324,0,0.282608695652174,              73P    258
0.508755832367865,0,0.282608695652174,0.5,0,0,1,0,0,1;                73P    259
508,2,0,43,7,0,1,0,71,0,43,8,0,1,0,73;                                75P    260
510,63,2,1,69,75;                                                     77P    261
110,0,0,0,0,0,1;                                                      79P    262
110,5,0,0,5,0,2;                                                      81P    263
120,79,81,0,6.28318530717959;                                         83P    264
126,1,1,1,0,1,0,0,0,1,1,1,1,1,0,0,1,3.14159265358979,0,0,1,0,0,       85P    265
1;                                                                    85P    266
126,1,1,1,0,1,0,0,0,1,1,1,1,0,3.14159265358979,0,1,                   87P    267
3.14159265358979,0,0,1,0,0,1;                                         87P    268
126,1,1,1,0,1,0,0,0,1,1,1,1,0,0,0,0,3.14159265358979,0,0,1,0,0,       89P    269
1;                                                                    89P    270
126,1,1,1,0,1,0,0,0,1,1,1,1,0,0,0,1,0,0,0,1,0,0,1;                    91P    271
508,4,0,43,8,1,1,0,85,0,43,9,0,1,0,87,0,43,3,0,1,0,89,0,43,10,1,      93P    272
1,0,91;                                                               93P    273
314,56.4705882352941,56.4705882352941,56.4705882352941,1H ;           95P    274
510,83,1,1,93;                                                        97P    275
110,0,0,0,0,0,1;                                                      99P    276
110,-11.5,1.40834381901946e-015,0,-11.5,1.40834381901946e-015,2;     101P    277
120,99,101,0,6.28318530717959;                                       103P    278
126,1,1,1,0,1,0,0,0,1,1,1,1,1,0,0,1,3.14159265358979,0,0,1,0,0,      105P    279
1;                                                                   105P    280
126,1,1,1,0,1,0,0,0,1,1,1,1,0,0,0,1,0,0,0,1,0,0,1;                   107P    281
126,1,1,1,0,1,0,0,0,1,1,1,1,0,0,0,0,3.14159265358979,0,0,1,0,0,      109P    282
1;                                                                   109P    283
126,1,1,1,0,1,0,0,0,1,1,1,1,0,3.14159265358979,0,1,                  111P    284
3.14159265358979,0,0,1,0,0,1;                                        111P    285
508,4,0,43,6,0,1,0,105,0,43,11,0,1,0,107,0,43,1,1,1,0,109,0,43,      113P    286
12,1,1,0,111;                                                        113P    287
510,103,1,1,113;                                                     115P    288
110,0,0,0,0,0,1;                                                     117P    289
110,-5,6.12323399573677e-016,0,-5,6.12323399573677e-016,2;           119P    290
120,117,119,0,6.28318530717959;                                      121P    291
126,1,1,1,0,1,0,0,0,1,1,1,1,0,3.14159265358979,0,1,                  123P    292
3.14159265358979,0,0,1,0,0,1;                                        123P    293
126,1,1,1,0,1,0,0,0,1,1,1,1,0,0,0,0,3.14159265358979,0,0,1,0,0,      125P    294
1;                                                                   125P    295
126,1,1,1,0,1,0,0,0,1,1,1,1,0,0,0,1,0,0,0,1,0,0,1;                   127P    296
126,1,1,1,0,1,0,0,0,1,1,1,1,1,0,0,1,3.14159265358979,0,0,1,0,0,      129P    297
1;                                                                   129P    298
508,4,0,43,10,0,1,0,123,0,43,4,0,1,0,125,0,43,9,1,1,0,127,0,43,      131P    299
7,1,1,0,129;                                                         131P    300
510,121,1,1,131;                                                     133P    301
110,0,0,0,0,0,1;                                                     135P    302
110,11.5,0,0,11.5,0,2;                                               137P    303
120,135,137,0,6.28318530717959;                                      139P    304
126,1,1,1,0,1,0,0,0,1,1,1,1,0,0,0,1,0,0,0,1,0,0,1;                   141P    305
126,1,1,1,0,1,0,0,0,1,1,1,1,0,0,0,0,3.14159265358979,0,0,1,0,0,      143P    306
1;                                                                   143P    307
126,1,1,1,0,1,0,0,0,1,1,1,1,0,3.14159265358979,0,1,                  145P    308
3.14159265358979,0,0,1,0,0,1;                                        145P    309
126,1,1,1,0,1,0,0,0,1,1,1,1,1,0,0,1,3.14159265358979,0,0,1,0,0,      147P    310
1;                                                                   147P    311
508,4,0,43,12,0,1,0,141,0,43,2,1,1,0,143,0,43,11,1,1,0,145,0,43,     149P    312
5,0,1,0,147;                                                         149P    313
510,139,1,1,149;                                                     151P    314
514,6,61,0,77,1,97,1,115,0,133,1,151,0;                              153P    315
186,153,1,0;                                                         155P    316
124,1,0,0,0,0,1,0,0,0,0,1,2;                                         157P    317
100,0,0,0,5,0,5,0;                                                   159P    318
124,1,0,0,0,0,1,0,0,0,0,1,0;                                         161P    319
100,0,0,0,11.5,0,11.5,0;                                             163P    320
S      2G      4D    164P    320                                        T      1
